<svg xmlns="http://www.w3.org/2000/svg" viewBox="0 0 9.0311117 1.4109616"><path d="M0 .282h.282v.282H0zM.282.282h.282v.282H.282zM.564 0h.283v.282H.564z" fill-rule="evenodd"/><path d="M.847 0h.282v.282H.846zM1.13 0h.28v.282h-.28zM1.41 0h.283v.282H1.41zM1.693 0h.283v.282h-.283zM1.976 0h.282v.282h-.282zM2.258 0h.282v.282h-.282zM2.54 0h.282v.282H2.54zM2.822 0h.282v.282h-.282zM3.104 0h.283v.282h-.283z" fill-rule="evenodd"/><path d="M3.387 0h.282v.282h-.283zM3.67 0h.28v.282h-.28zM3.95 0h.283v.282H3.95z" fill-rule="evenodd"/><path d="M4.233 0h.283v.282h-.283zM4.516 0h.282v.282h-.282zM4.798 0h.282v.282h-.282zM5.08 0h.282v.282H5.08zM5.362 0h.282v.282h-.282zM5.644 0h.283v.282h-.283z" fill-rule="evenodd"/><path d="M5.927 0h.282v.282h-.283zM6.21 0h.28v.282h-.28zM6.49 0h.283v.282H6.49z" fill-rule="evenodd"/><path d="M6.773 0h.283v.282h-.283zM7.056 0h.282v.282h-.282zM7.338 0h.282v.282h-.282zM7.62 0h.282v.282H7.62z" fill-rule="evenodd"/><path d="M7.902 0h.282v.282h-.282zM8.184 0h.283v.282h-.283z" fill-rule="evenodd"/><path d="M8.467 0h.282v.282h-.283zM8.75 0h.28v.282h-.28zM2.258.282h.282v.282h-.282zM2.54.282h.282v.282H2.54z" fill-rule="evenodd"/><path d="M2.822.282h.282v.282h-.282z" fill="#696969" fill-rule="evenodd"/><path d="M3.104.282h.283v.282h-.283z" fill-rule="evenodd"/><path d="M3.387.282h.282v.282h-.283z" fill="#696969" fill-rule="evenodd"/><path d="M3.67.282h.28v.282h-.28zM3.95.282h.283v.282H3.95z" fill-rule="evenodd"/><path d="M4.233.282h.283v.282h-.283zM4.516.282h.282v.282h-.282zM4.798.282h.282v.282h-.282zM5.08.282h.282v.282H5.08zM5.362.282h.282v.282h-.282zM5.927.282h.282v.282h-.283zM6.21.282h.28v.282h-.28z" fill-rule="evenodd"/><path d="M6.49.282h.283v.282H6.49z" fill="#696969" fill-rule="evenodd"/><path d="M6.773.282h.283v.282h-.283z" fill-rule="evenodd"/><path d="M7.056.282h.282v.282h-.282z" fill="#696969" fill-rule="evenodd"/><path d="M7.338.282h.282v.282h-.282zM7.62.282h.282v.282H7.62z" fill-rule="evenodd"/><path d="M7.902.282h.282v.282h-.282zM8.184.282h.283v.282h-.283z" fill-rule="evenodd"/><path d="M8.467.282h.282v.282h-.283zM8.75.282h.28v.282h-.28zM2.54.564h.282v.283H2.54zM2.822.564h.282v.283h-.282z" fill-rule="evenodd"/><path d="M3.104.564h.283v.283h-.283z" fill="#696969" fill-rule="evenodd"/><path d="M3.387.564h.282v.283h-.283z" fill-rule="evenodd"/><path d="M3.67.564h.28v.283h-.28z" fill="#696969" fill-rule="evenodd"/><path d="M3.95.564h.283v.283H3.95z" fill-rule="evenodd"/><path d="M4.233.564h.283v.283h-.283zM4.516.564h.282v.283h-.282zM4.798.564h.282v.283h-.282zM5.08.564h.282v.283H5.08zM5.362.564h.282v.283h-.282zM6.21.564h.28v.283h-.28zM6.49.564h.283v.283H6.49z" fill-rule="evenodd"/><path d="M6.773.564h.283v.283h-.283z" fill="#696969" fill-rule="evenodd"/><path d="M7.056.564h.282v.283h-.282z" fill-rule="evenodd"/><path d="M7.338.564h.282v.283h-.282z" fill="#696969" fill-rule="evenodd"/><path d="M7.62.564h.282v.283H7.62z" fill-rule="evenodd"/><path d="M7.902.564h.282v.283h-.282zM8.184.564h.283v.283h-.283z" fill-rule="evenodd"/><path d="M8.467.564h.282v.283h-.283zM2.822.847h.282v.282h-.282zM3.104.847h.283v.282h-.283z" fill-rule="evenodd"/><path d="M3.387.847h.282v.282h-.283z" fill="#696969" fill-rule="evenodd"/><path d="M3.67.847h.28v.282h-.28z" fill-rule="evenodd"/><path d="M3.95.847h.283v.282H3.95z" fill="#696969" fill-rule="evenodd"/><path d="M4.233.847h.283v.282h-.283zM4.516.847h.282v.282h-.282zM4.798.847h.282v.282h-.282zM5.08.847h.282v.282H5.08zM6.49.847h.283v.282H6.49z" fill-rule="evenodd"/><path d="M6.773.847h.283v.282h-.283zM7.056.847h.282v.282h-.282zM7.338.847h.282v.282h-.282zM7.62.847h.282v.282H7.62z" fill-rule="evenodd"/><path d="M7.902.847h.282v.282h-.282zM8.184.847h.283v.282h-.283zM3.104 1.13h.283v.28h-.283z" fill-rule="evenodd"/><path d="M3.387 1.13h.282v.28h-.283zM3.67 1.13h.28v.28h-.28zM3.95 1.13h.283v.28H3.95z" fill-rule="evenodd"/><path d="M4.233 1.13h.283v.28h-.283zM4.516 1.13h.282v.28h-.282zM4.798 1.13h.282v.28h-.282z" fill-rule="evenodd"/></svg>